# AST/ASF file generated using VICON BodyLanguage
# -----------------------------------------------
:version 1.10
:name VICON
:units
  mass 1.0
  length 0.45
  angle deg
:documentation
   .ast/.asf automatically generated from VICON data using
   VICON BodyBuilder and BodyLanguage model FoxedUp or BRILLIANT.MOD
:root
   order TX TY TZ RX RY RZ
   axis XYZ
   position 0 0 0  
   orientation 0 0 0 
:bonedata
  begin
     id 1 
     name lhipjoint
     direction 0.57768 -0.667037 0.470475 
     length 2.36008 
     axis 0 0 0  XYZ
  end
  begin
     id 2 
     name lfemur
     direction 0.34202 -0.939693 0  
     length 6.97235  
     axis 0 0 20  XYZ
    dof rx ry rz
    limits (-160.0 20.0)
           (-70.0 70.0)
           (-60.0 70.0)
  end
  begin
     id 3 
     name ltibia
     direction 0.34202 -0.939693 0   
     length 6.93428   
     axis 0 0 20   XYZ
    dof rx
    limits (-10.0 170.0)
  end
  begin
     id 4 
     name lfoot
     direction 0.133018 -0.365463 0.921272   
     length 2.18603   
     axis -90 7.62852e-016 20   XYZ
    dof rx rz
    limits (-45.0 90.0)
           (-70.0 20.0)
  end
  begin
     id 5 
     name ltoes
     direction 1.53519e-011 -4.22055e-011 1   
     length 1.07924   
     axis -90 7.62852e-016 20   XYZ
    dof rx
    limits (-90.0 20.0)
  end
  begin
     id 6 
     name rhipjoint
     direction -0.577712 -0.667019 0.470462   
     length 2.36015  
     axis 0 0 0  XYZ 
  end
  begin
     id 7 
     name rfemur
     direction -0.34202 -0.939693 0   
     length 6.71195   
     axis 0 0 -20   XYZ
    dof rx ry rz
    limits (-160.0 20.0)
           (-70.0 70.0)
           (-70.0 60.0)
  end
  begin
     id 8 
     name rtibia
     direction -0.34202 -0.939693 0   
     length 7.04592   
     axis 0 0 -20   XYZ
    dof rx
    limits (-10.0 170.0)
 end
 begin
     id 9 
     name rfoot
     direction -0.113796 -0.312651 0.943027   
     length 2.03846  
     axis -90 -7.62852e-016 -20   XYZ
    dof rx rz
    limits (-45.0 90.0)
           (-20.0 70.0)
  end
  begin
     id 10 
     name rtoes
     direction -1.53586e-011 -4.218e-011 1   
     length 1.01562   
     axis -90 -7.62852e-016 -20   XYZ
    dof rx
    limits (-90.0 20.0)
  end
  begin
     id 11 
     name lowerback
     direction -0.0417299 0.991937 -0.119667   
     length 2.05257   
     axis 0 0 0   XYZ
    dof rx ry rz
    limits (-20.0 45.0)
           (-30.0 30.0)
           (-30.0 30.0)
  end
  begin
     id 12 
     name upperback
     direction -0.00017666 0.999999 0.00105178   
     length 2.05693   
     axis 0 0 0   XYZ
    dof rx ry rz
    limits (-20.0 45.0)
           (-30.0 30.0)
           (-30.0 30.0)
  end
  begin
     id 13 
     name thorax
     direction 0.0185169 0.998203 0.0569866   
     length 2.0932   
     axis 0 0 0   XYZ
    dof rx ry rz
    limits (-20.0 45.0)
           (-30.0 30.0)
           (-30.0 30.0)
  end
  begin
     id 14 
     name lowerneck
     direction -0.0212406 0.982645 0.184277   
     length 1.72509   
     axis 0 0 0   XYZ
    dof rx ry rz
    limits (-20.0 45.0)
           (-30.0 30.0)
           (-30.0 30.0)
  end
  begin
     id 15 
     name upperneck
     direction 0.00528579 0.965323 -0.261004   
     length 1.76294   
     axis 0 0 0   XYZ
    dof rx ry rz
    limits (-20.0 45.0)
           (-30.0 30.0)
           (-30.0 30.0)
  end
  begin
     id 16
     name head
     direction 0.00695421 0.994078 -0.108445  
     length 1.78678  
     axis 0 0 0   XYZ
    dof rx ry rz
    limits (-20.0 45.0)
           (-30.0 30.0)
           (-30.0 30.0)
  end
  begin
     id 17 
     name lclavicle
     direction 0.97277 0.211305 -0.095232  
     length 3.84823  
     axis 0 0 0   XYZ
    dof ry rz
    limits (-20.0 10.0)
           (0.0 20.0)
  end
  begin
     id 18 
     name lhumerus
     direction 1 -4.48957e-011 -1.98313e-027   
     length 4.97185   
     axis 180 -30 -90   XYZ
    dof rx ry rz
    limits (-60.0 90.0)
           (-90.0 90.0)
           (-90.0 90.0)
  end
  begin
     id 19
     name lradius
     direction 1 -4.4898e-011 7.31063e-027   
     length 3.35811   
     axis 180 -30 -90   XYZ
    dof rx
    limits (-10.0 170.0)
  end
  begin
     id 20
     name lwrist
     direction 1 -4.48938e-011 9.95048e-027   
     length 1.67905   
     axis -8.75986e-015 90 90   XYZ
    dof ry
    limits (-180.0 0.0)
 end
  begin
     id 21 
     name lhand
     direction 1 -4.4901e-011 1.9901e-026   
     length 0.622776   
     axis -1.26985e-014 90 90   XYZ
    dof rx rz
    limits (-90.0 90.0)
           (-45.0 45.0)
  end
  begin
     id 22 
     name lfingers
     direction 1 -4.48961e-011 3.98019e-026   
     length 0.502098   
     axis -2.5397e-014 90 90   XYZ
    dof rx
    limits (0.0 90.0)
  end
  begin
     id 23
     name lthumb
     direction 0.707107 -6.34933e-011 0.707107   
     length 0.720915   
     axis -90 45 2.85299e-015   XYZ
    dof rx rz
    limits (-45.0 45.0)
           (-45.0 45.0)
  end
  begin
     id 24 
     name rclavicle
     direction -0.990867 0.133739 -0.0172226   
     length 3.78845  
     axis 0 0 0   XYZ 
    dof ry rz
    limits (-10.0 20.0)
           (-20.0 0.0)
  end
  begin
     id 25 
     name rhumerus
     direction -1 -4.48972e-011 -1.99267e-027  
     length 4.96493   
     axis 180 30 90   XYZ
    dof rx ry rz
    limits (-90.0 60.0)
           (-90.0 90.0)
           (-90.0 90.0)
  end
  begin
     id 26 
     name rradius
     direction -1 -4.48969e-011 8.96093e-027   
     length 3.34929   
     axis 180 30 90   XYZ
    dof rx
    limits (-10.0 170.0)
  end
  begin
     id 27 
     name rwrist
     direction -1 -4.48953e-011 9.95048e-027   
     length 1.67464   
     axis -8.75986e-015 -90 -90   XYZ
    dof ry
    limits (-180.0 0.0)
  end
  begin
     id 28
     name rhand
     direction -1 -4.49001e-011 1.9901e-026   
     length 0.638041   
     axis -1.26985e-014 -90 -90   XYZ
    dof rx rz
    limits (-90.0 90.0)
           (-45.0 45.0)
  end
  begin
     id 29
     name rfingers
     direction -1 -4.48967e-011 3.98019e-026   
     length 0.514405   
     axis -2.5397e-014 -90 -90   XYZ
    dof rx
    limits (0.0 90.0)
  end
  begin
     id 30
     name rthumb
     direction -0.707107 -6.34904e-011 0.707107   
     length 0.738586   
     axis -90 -45 -2.85299e-015   XYZ
    dof rx rz
    limits (-45.0 45.0)
           (-45.0 45.0)
  end
:hierarchy
  begin
    root lhipjoint rhipjoint lowerback
    lhipjoint lfemur
    lfemur ltibia
    ltibia lfoot
    lfoot ltoes
    rhipjoint rfemur
    rfemur rtibia
    rtibia rfoot
    rfoot rtoes
    lowerback upperback
    upperback thorax
    thorax lowerneck lclavicle rclavicle
    lowerneck upperneck
    upperneck head
    lclavicle lhumerus
    lhumerus lradius
    lradius lwrist
    lwrist lhand lthumb
    lhand lfingers
    rclavicle rhumerus
    rhumerus rradius
    rradius rwrist
    rwrist rhand rthumb
    rhand rfingers
  end

#!OML:ASF E:\Mandelcareful walks\Project 1\Capture day 1\Session 1\Subject1.ASF
:FULLY-SPECIFIED
:DEGREES
344
root -7.57978 14.9892 -12.9732 385.581 16.5753 735.33
lowerback 30.6383 -4.87021 7.20077
upperback 9.47295 -3.67571 1.01368
thorax -6.38071 -1.61488 -1.72282
lowerneck -33.2086 6.45935 1.97237
upperneck 35.2812 14.6651 -12.6812
head 21.3239 3.89159 -2.72813
rclavicle 6.36111e-015 1.90833e-014
rhumerus -21.1879 36.0056 -84.0348
rradius 66.5559
rwrist -74.4771
rhand -25.1267 -60.7598
rfingers 7.12502
rthumb 1.3892 90.735
lclavicle 6.36111e-015 1.90833e-014
lhumerus 29.4251 -77.329 64.4062
lradius 51.9936
lwrist 10.2102
lhand -42.5535 -31.4749
lfingers 7.12502
lthumb -15.4284 -2.07071
rfemur -52.1966 -0.133367 -5.93524
rtibia 66.0949
rfoot -28.1083 -19.4693
rtoes -21.3285
lfemur -56.0774 15.6966 -20.8108
ltibia 60.9912
lfoot -11.6791 3.41494
ltoes -23.6629
345
root -7.50714 14.9883 -12.9256 385.974 16.9403 735.663
lowerback 30.224 -5.01412 7.63667
upperback 9.44881 -3.78097 0.886868
thorax -6.25445 -1.65944 -2.09195
lowerneck -33.1852 6.53931 2.23638
upperneck 35.0773 14.6357 -12.7759
head 21.2202 3.91681 -2.81714
rclavicle -6.67916e-014 1.59028e-015
rhumerus -21.9301 35.5767 -84.1324
rradius 67.8239
rwrist -74.5526
rhand -26.6194 -62.4264
rfingers 7.12502
rthumb -0.0525138 92.4061
lclavicle -6.67916e-014 1.59028e-015
lhumerus 28.1698 -77.3225 65.7894
lradius 52.1377
lwrist 10.0889
lhand -41.8765 -30.6736
lfingers 7.12502
lthumb -14.7762 -1.22029
rfemur -51.7939 -0.466918 -6.47576
rtibia 66.0483
rfoot -29.1253 -18.3273
rtoes -17.6415
lfemur -56.8231 14.5991 -20.9605
ltibia 58.3776
lfoot -11.8294 3.99117
ltoes -25.5948
346
root -7.46764 14.993 -12.8784 385.802 16.5708 735.296
lowerback 30.702 -4.71042 7.70996
upperback 9.46016 -3.35195 0.743067
thorax -6.43315 -1.45994 -2.43037
lowerneck -33.3655 6.59296 2.51974
upperneck 34.9195 14.5069 -12.7407
head 21.1642 3.91291 -2.87277
rclavicle 6.67916e-014 1.59028e-015
rhumerus -22.8393 34.731 -84.3043
rradius 69.6837
rwrist -74.6466
rhand -25.549 -61.1739
rfingers 7.12502
rthumb 0.98129 91.1514
lclavicle 6.67916e-014 1.59028e-015
lhumerus 27.8356 -77.7001 65.8519
lradius 52.9691
lwrist 10.0973
lhand -42.7493 -28.6152
lfingers 7.12502
lthumb -15.6169 0.774402
rfemur -51.6202 0.377004 -6.6075
rtibia 66.0833
rfoot -30.4899 -16.651
rtoes -11.3732
lfemur -57.0881 14.5115 -20.4722
ltibia 55.8004
lfoot -11.9886 4.24312
ltoes -25.8618
347
root -7.42391 14.9955 -12.8452 385.652 16.492 734.676
lowerback 31.0807 -4.63312 7.93116
upperback 9.5493 -3.14646 0.840767
thorax -6.48585 -1.36124 -2.50985
lowerneck -33.7022 6.8042 2.47164
upperneck 34.529 14.8162 -12.8022
head 21.0439 4.01072 -2.77718
rclavicle 3.97569e-014 -1.59028e-015
rhumerus -23.7425 34.8353 -84.3101
rradius 69.9016
rwrist -70.9114
rhand -21.4063 -53.3976
rfingers 7.12502
rthumb 4.982 -83.319
lclavicle 3.97569e-014 -1.59028e-015
lhumerus 25.6703 -76.8361 67.8941
lradius 53.1858
lwrist 9.30972
lhand -40.9914 -29.4972
lfingers 7.12502
lthumb -13.9234 0.0166723
rfemur -51.6344 0.745204 -6.15592
rtibia 66.1329
rfoot -31.0307 -16.2546
rtoes -9.53332
lfemur -57.5449 14.0102 -19.5122
ltibia 53.3854
lfoot -12.1294 4.54925
ltoes -24.8176
348
root -7.35928 14.9847 -12.8112 385.558 16.489 734.297
lowerback 32.1766 -4.51655 7.56688
upperback 8.89915 -2.91684 1.28884
thorax -6.94051 -1.27911 -1.6581
lowerneck -33.6651 7.03696 2.16842
upperneck 34.2477 15.5208 -13.2599
head 21.0109 4.18138 -2.73639
rclavicle 4.6118e-014 -1.59028e-014
rhumerus -25.2125 35.3995 -83.7875
rradius 72.0583
rwrist -69.0453
rhand -22.0301 -54.666
rfingers 7.12502
rthumb 4.37972 -84.6007
lclavicle 4.6118e-014 -1.59028e-014
lhumerus 20.7668 -75.7237 73.5055
lradius 53.6
lwrist 9.24095
lhand -40.1187 -28.4049
lfingers 7.12502
lthumb -13.0822 1.16484
rfemur -51.5406 0.579487 -5.80019
rtibia 66.2091
rfoot -30.7968 -16.4536
rtoes -11.0796
lfemur -57.9479 13.2701 -18.7996
ltibia 51.1956
lfoot -12.4375 5.08663
ltoes -24.7942
349
root -7.27837 14.9583 -12.7745 385.56 16.4279 734.123
lowerback 32.4828 -4.41245 7.47552
upperback 8.85919 -2.77338 1.39137
thorax -7.08268 -1.217 -1.54023
lowerneck -33.6635 7.28769 2.22271
upperneck 33.8421 15.9048 -13.5065
head 20.8552 4.31802 -2.73191
rclavicle -1.90833e-014 0
rhumerus -26.5682 35.3119 -83.5841
rradius 74.4128
rwrist -66.519
rhand -20.986 -52.6382
rfingers 7.12502
rthumb 5.3879 -82.5497
lclavicle -1.90833e-014 0
lhumerus 17.1286 -74.7727 77.7068
lradius 53.8201
lwrist 9.27708
lhand -38.8634 -26.225
lfingers 7.12502
lthumb -11.8719 3.4184
rfemur -51.4453 0.123744 -5.73019
rtibia 66.3939
rfoot -30.6609 -16.2952
rtoes -12.7296
lfemur -58.4811 12.6545 -18.4927
ltibia 49.3585
lfoot -12.7759 5.81782
ltoes -25.1629
350
root -7.18756 14.918 -12.7379 385.432 16.2695 733.852
lowerback 32.7296 -4.19786 7.72836
upperback 9.01254 -2.42876 1.19874
thorax -6.99628 -1.04614 -1.99064
lowerneck -33.7709 7.42204 2.70438
upperneck 33.4146 15.8713 -13.7877
head 20.7096 4.34931 -2.93739
rclavicle -6.36111e-015 -6.20208e-014
rhumerus -28.0648 34.6226 -83.6333
rradius 77.7568
rwrist -65.4393
rhand -23.5359 -54.3108
rfingers 7.12502
rthumb 2.92559 -84.2705
lclavicle -6.36111e-015 -6.20208e-014
lhumerus 15.0371 -74.4083 80.1614
lradius 54.0924
lwrist 9.87761
lhand -37.5064 -24.3493
lfingers 7.12502
lthumb -10.5631 5.36526
rfemur -51.3831 -0.323244 -5.63076
rtibia 66.7143
rfoot -31.0155 -15.7944
rtoes -15.5652
lfemur -59.0244 12.3065 -18.3072
ltibia 47.9241
lfoot -13.038 6.62266
ltoes -25.3676
351
root -7.08656 14.8645 -12.7017 385.129 16.0096 733.551
lowerback 33.0982 -3.87033 8.2297
upperback 9.23901 -1.88337 0.733636
thorax -6.86438 -0.771645 -2.92682
lowerneck -33.8713 7.43652 3.51687
upperneck 33.114 15.4217 -13.933
head 20.5876 4.28213 -3.26059
rclavicle 6.52014e-014 -6.36111e-015
rhumerus -29.6285 33.164 -83.9963
rradius 80.9523
rwrist -63.4174
rhand -25.4808 -55.569
rfingers 7.12502
rthumb 1.04723 -85.5462
lclavicle 6.52014e-014 -6.36111e-015
lhumerus 13.8269 -75.0315 81.0666
lradius 54.995
lwrist 11.6075
lhand -36.0648 -22.4696
lfingers 7.12502
lthumb -9.17237 7.31092
rfemur -51.2631 -0.719824 -5.58968
rtibia 67.2112
rfoot -31.5198 -15.0996
rtoes -19.6549
lfemur -59.4185 12.0717 -18.2132
ltibia 46.8753
lfoot -13.2497 7.21452
ltoes -25.376
352
root -6.97834 14.7947 -12.6676 384.746 15.6852 733.335
lowerback 33.737 -3.86536 7.84447
upperback 9.34854 -1.92639 0.831592
thorax -6.9791 -0.791933 -2.58933
lowerneck -33.7867 7.83858 3.23311
upperneck 32.6193 16.2148 -14.19
head 20.3956 4.53325 -3.0754
rclavicle -7.15625e-014 -5.08889e-014
rhumerus -30.4373 33.937 -83.7046
rradius 83.116
rwrist -60.8635
rhand -26.2409 -54.5602
rfingers 7.12502
rthumb 0.313029 -84.5397
lclavicle -7.15625e-014 -5.08889e-014
lhumerus 9.94216 -73.5159 84.7883
lradius 56.0569
lwrist 13.7797
lhand -34.3944 -19.4693
lfingers 7.12502
lthumb -7.56031 10.3756
rfemur -51.0998 -1.07956 -5.74974
rtibia 67.8824
rfoot -32.0456 -14.2956
rtoes -21.4685
lfemur -59.7206 11.8139 -18.1843
ltibia 46.2821
lfoot -13.4298 7.37561
ltoes -24.6463
353
root -6.87169 14.7002 -12.6391 384.246 15.2991 733.061
lowerback 34.7087 -3.55065 7.53018
upperback 9.30139 -1.54656 0.79702
thorax -7.22979 -0.620021 -2.55307
lowerneck -33.7725 8.06541 3.62897
upperneck 32.4345 16.4879 -14.5935
head 20.445 4.64349 -3.2538
rclavicle -3.18055e-015 3.49861e-014
rhumerus -31.2365 33.4677 -83.6457
rradius 84.396
rwrist -57.9715
rhand -28.5365 -57.7817
rfingers 7.12502
rthumb -1.9041 -87.7529
lclavicle -3.18055e-015 3.49861e-014
lhumerus 7.17066 -74.0042 87.2789
lradius 57.9921
lwrist 19.277
lhand -37.378 -15.1262
lfingers 7.12502
lthumb -10.4393 14.5946
rfemur -51.0089 -1.25708 -5.92528
rtibia 68.7173
rfoot -32.6282 -13.3374
rtoes -21.0092
lfemur -60.0857 11.8268 -18.1727
ltibia 46.2864
lfoot -13.2091 6.83244
ltoes -24.2701
354
root -6.74167 14.5885 -12.6034 383.637 14.5394 732.576
lowerback 35.4904 -3.09787 7.17085
upperback 9.4195 -1.05925 0.697916
thorax -7.34394 -0.392549 -2.63505
lowerneck -33.6311 8.34613 4.19215
upperneck 32.2859 16.7626 -15.0153
head 20.5122 4.77905 -3.47344
rclavicle 7.95139e-015 1.59028e-014
rhumerus -32.1395 33.2076 -83.6321
rradius 85.8422
rwrist -55.6532
rhand -28.6058 -58.1792
rfingers 7.12502
rthumb -1.971 -88.1499
lclavicle 7.95139e-015 1.59028e-014
lhumerus 4.30096 -74.3897 89.8878
lradius 59.8012
lwrist 25.1156
lhand -40.3683 -12.1324
lfingers 7.12502
lthumb -13.3228 17.4217
rfemur -51.1633 -1.33151 -5.97115
rtibia 69.5994
rfoot -32.6617 -13.1266
rtoes -22.6942
lfemur -60.3711 11.9476 -17.8545
ltibia 47.0817
lfoot -11.4255 5.61269
ltoes -28.7781
355
root -6.60574 14.4965 -12.5506 382.322 14.4031 732.175
lowerback 36.8887 -3.20746 7.24165
upperback 9.67787 -1.06258 0.483307
thorax -7.55166 -0.381167 -2.87146
lowerneck -33.4502 8.71015 4.73779
upperneck 32.1797 17.0714 -15.2007
head 20.5523 4.95502 -3.56296
rclavicle -3.49861e-014 -1.59028e-014
rhumerus -32.6099 33.4039 -83.7614
rradius 87.0329
rwrist -54.1094
rhand -28.3528 -57.2355
rfingers 7.12502
rthumb -1.72662 -87.2082
lclavicle -3.49861e-014 -1.59028e-014
lhumerus 1.1925 -74.0663 92.7423
lradius 61.0549
lwrist 29.4368
lhand -41.9259 -9.52263
lfingers 7.12502
lthumb -14.8238 19.9271
rfemur -50.0379 -1.55255 -5.70161
rtibia 70.4244
rfoot -32.7726 -13.8779
rtoes -26.1541
lfemur -59.4826 11.3762 -16.7317
ltibia 48.6772
lfoot -6.48548 1.65428
ltoes -19.3007
356
root -6.47145 14.3975 -12.5049 380.865 14.3139 731.753
lowerback 38.4684 -3.3674 7.30705
upperback 9.96331 -1.11517 0.213137
thorax -7.77465 -0.388432 -3.14253
lowerneck -33.4174 9.02371 5.23367
upperneck 32.215 17.2918 -15.2296
head 20.6677 5.09591 -3.59979
rclavicle 1.11319e-014 -2.70347e-014
rhumerus -32.3235 33.7544 -83.8693
rradius 87.2285
rwrist -53.0465
rhand -29.2132 -56.4355
rfingers 7.12502
rthumb -2.55757 -86.3999
lclavicle 1.11319e-014 -2.70347e-014
lhumerus 0.00508329 -73.9572 93.4571
lradius 62.201
lwrist 34.0003
lhand -42.9328 -6.65787
lfingers 7.12502
lthumb -15.7936 22.7178
rfemur -48.684 -1.384 -5.63239
rtibia 71.2892
rfoot -33.3745 -13.966
rtoes -26.9216
lfemur -59.095 11.375 -16.2425
ltibia 50.9064
lfoot -6.4793 1.73739
ltoes -25.1525
